<?xml version="1.0" encoding="UTF-8"?>
<svg version="1.1" xmlns="http://www.w3.org/2000/svg" width="512" height="512">
<path d="M0 0 C2.72762351 -0.00323696 5.45522041 -0.01242006 8.18283081 -0.02124023 C14.77042221 -0.03886653 21.35782956 -0.03525737 27.94542766 -0.02358967 C33.30755651 -0.01449219 38.66963441 -0.01335834 44.0317688 -0.01768494 C44.79996148 -0.01829787 45.56815416 -0.0189108 46.3596254 -0.01954231 C47.92103284 -0.02082143 49.48244027 -0.02211829 51.04384768 -0.02343267 C65.62609653 -0.03479191 80.20824419 -0.02179836 94.79047644 -0.00023121 C107.25587603 0.01763553 119.72112653 0.0145301 132.18652344 -0.00390625 C146.72273549 -0.02539581 161.25885923 -0.03369371 175.79508495 -0.0214572 C177.35019619 -0.02018323 178.90530744 -0.01892574 180.4604187 -0.01768494 C181.22521988 -0.01706783 181.99002106 -0.01645073 182.77799803 -0.01581493 C188.12294545 -0.01238617 193.46783605 -0.0181364 198.81277466 -0.02760315 C205.34188207 -0.03891499 211.8707976 -0.03559304 218.39988351 -0.01448017 C221.72019833 -0.00409116 225.03993634 -0.00185176 228.36028671 -0.01307678 C268.50800351 -0.13618491 302.47587597 10.942015 331.49609375 39.33007812 C337.9386392 45.83567261 343.36089284 52.78371256 348.24609375 60.51757812 C348.63635742 61.1332666 349.02662109 61.74895508 349.42871094 62.38330078 C365.37465187 88.01117534 368.86402589 114.58423497 368.76367188 144.28735352 C368.7669088 147.01659954 368.77609185 149.74581896 368.78491211 152.47505188 C368.80253802 159.06631825 368.7989296 165.65740067 368.78726155 172.24867374 C368.77816468 177.61319486 368.77702996 182.97766505 368.78135681 188.3421917 C368.78196974 189.1106731 368.78258268 189.8791545 368.78321418 190.67092321 C368.7844933 192.23289639 368.78579016 193.79486955 368.78710455 195.35684269 C368.79846346 209.94383016 368.78547035 224.53071647 368.76390308 239.11768734 C368.74603279 251.58965787 368.74914477 264.06147941 368.76757812 276.53344727 C368.78906204 291.07587565 368.79736901 305.61821578 368.78512907 320.16065782 C368.7838551 321.71603197 368.78259761 323.27140614 368.78135681 324.82678032 C368.78073971 325.59172221 368.78012261 326.3566641 368.77948681 327.14478605 C368.77605664 332.49320891 368.78181131 337.84157502 368.79127502 343.18998909 C368.80258037 349.72168694 368.79927801 356.25319294 368.77815205 362.78486926 C368.7677551 366.10708552 368.76553367 369.42872455 368.77674866 372.75097656 C368.89936425 412.79386549 357.42783099 447.04457758 329.05859375 476.08007812 C305.85596334 499.19107901 273.59844445 512.67045932 240.90901184 512.66474915 C239.77374752 512.66842583 238.6384832 512.67210252 237.46881694 512.67589062 C233.66776462 512.68689628 229.86673967 512.69076608 226.06567383 512.69458008 C223.33850371 512.70031855 220.61133764 512.70748203 217.88417053 512.7144928 C209.70153114 512.73421196 201.5188906 512.74431914 193.33623341 512.75322059 C189.47407533 512.75761229 185.6119186 512.76297692 181.74976158 512.76820946 C168.89484982 512.7852197 156.03993887 512.79970997 143.18501759 512.8069582 C139.85259309 512.80886782 136.52016861 512.81078819 133.18774414 512.81274414 C131.94549302 512.81346975 131.94549302 512.81346975 130.67814591 512.81421002 C117.28694994 512.82249578 103.89584372 512.84780895 90.50468687 512.88032482 C76.72725573 512.91350317 62.94987001 512.93141678 49.17239875 512.93460244 C41.44874134 512.93675796 33.72521467 512.94536458 26.00159645 512.97106361 C19.41834998 512.99291871 12.83526601 513.00074926 6.25198738 512.99109683 C2.90149335 512.98659393 -0.44839834 512.99044406 -3.79888916 513.00785828 C-43.92444378 513.20458397 -78.21734238 501.76142013 -107.31640625 473.33007812 C-133.46918401 447.07361094 -144.23919453 412.7360444 -144.28491211 376.32443237 C-144.27554471 373.78301852 -144.26576561 371.24160616 -144.25561523 368.70019531 C-144.25719929 365.9660839 -144.26476382 363.23199583 -144.27198792 360.49789429 C-144.28579365 353.89559429 -144.27846006 347.29348785 -144.26331233 340.69119737 C-144.24630235 332.97871439 -144.24968103 325.26627762 -144.25340641 317.55378166 C-144.25926137 303.78190947 -144.24520478 290.01012921 -144.22045898 276.23828125 C-144.19652649 262.9172827 -144.18946507 249.59640682 -144.19995117 236.27539062 C-144.21139314 221.71431902 -144.21325153 207.1533039 -144.19885308 192.59223294 C-144.19732747 191.03607003 -144.19580711 189.47990712 -144.19429207 187.9237442 C-144.19353425 187.15838017 -144.19277644 186.39301615 -144.19199566 185.60445927 C-144.18727957 180.24562321 -144.18908499 174.88681263 -144.19335747 169.52797699 C-144.19831395 162.98853178 -144.19216772 156.44920186 -144.17246317 149.90978286 C-144.16267832 146.58194688 -144.1590292 143.25442927 -144.16535568 139.92656326 C-144.19354964 122.95981042 -143.76612981 106.64053743 -138.06640625 90.45507812 C-137.81366943 89.7195874 -137.56093262 88.98409668 -137.30053711 88.22631836 C-125.18966738 54.24526369 -100.12292529 27.09994165 -67.75390625 11.51757812 C-45.78668681 1.58600132 -23.83524226 -0.08057918 0 0 Z " fill="#338BE0" transform="translate(143.75390625,-0.517578125)"/>
<path d="M0 0 C5.79205333 4.90966142 11.44553446 9.9592826 17.06616211 15.06396484 C17.55196747 15.50510809 18.03777283 15.94625134 18.53829956 16.40076256 C28.1793204 25.16625204 37.65859533 34.0981732 47.08121395 43.09760094 C53.0595188 48.80040287 59.07877491 54.43977246 65.23266602 59.953125 C109.81863405 99.987111 109.81863405 99.987111 111.51469135 125.94622993 C111.80947854 138.48274205 110.34070632 150.709654 108 163 C107.82470135 163.96768059 107.64940269 164.93536118 107.46879196 165.93236542 C100.98273519 201.63212103 83.86087153 234.34871924 53.43823242 255.46411133 C35.85473739 267.25323755 17.03106941 275.53963513 -4.08169556 278.42050171 C-7.03286801 278.85696585 -9.92505417 279.35805108 -12.84896851 279.93447876 C-29.91946344 283.27155878 -47.0387977 285.37862202 -64.375 286.625 C-65.07264418 286.6767979 -65.77028836 286.72859581 -66.48907328 286.78196335 C-103.43167517 289.45101444 -132.9357756 284.42356604 -161.66723633 259.86581421 C-176.44267155 246.92374907 -190.11559239 232.91610573 -203.4375 218.5 C-204.10672957 217.77722146 -204.77595915 217.05444292 -205.46546841 216.309762 C-222.94436375 197.40440645 -239.76728135 177.98434749 -256 158 C-252.69187395 156.89729132 -252.19237901 157.1638511 -249 158 C-246.95353942 158.11421977 -244.90393036 158.17616359 -242.85449219 158.20532227 C-241.61350769 158.22526749 -240.37252319 158.24521271 -239.09393311 158.26576233 C-237.744915 158.28274393 -236.39589559 158.29962283 -235.046875 158.31640625 C-233.66253049 158.33698876 -232.27819208 158.35798557 -230.89385986 158.37937927 C-227.257456 158.43446607 -223.62099667 158.48393414 -219.98449707 158.53222656 C-216.27086475 158.58253964 -212.55731256 158.63817442 -208.84375 158.69335938 C-201.56256794 158.80077704 -194.28131906 158.90225808 -187 159 C-187.00999275 157.56419334 -187.00999275 157.56419334 -187.02018738 156.09938049 C-187.08116326 147.05179214 -187.12605147 138.00424582 -187.15543652 128.95649815 C-187.17105184 124.30562802 -187.19221412 119.6549246 -187.22631836 115.00415039 C-187.25905987 110.51078097 -187.27688406 106.01757128 -187.28463173 101.52409172 C-187.2901488 99.81498642 -187.30092197 98.10588927 -187.31719017 96.39685249 C-187.44387354 82.52909488 -186.0473004 71.61839914 -176.18359375 61.0546875 C-166.79280547 52.28995177 -156.91664353 49.50279373 -144.375 49.7265625 C-133.61863466 50.19322612 -125.74603989 55.33091601 -118.25 62.7265625 C-111.12824257 70.52488689 -108.83371419 78.28831397 -108.88647461 88.7277832 C-108.88632858 89.48929184 -108.88618256 90.25080048 -108.8860321 91.03538513 C-108.88672613 93.54054662 -108.8944946 96.04563282 -108.90234375 98.55078125 C-108.90420974 100.29241393 -108.90563279 102.03404714 -108.90663147 103.77568054 C-108.91044238 108.35085509 -108.92026047 112.9259977 -108.93133545 117.50115967 C-108.94158025 122.17329476 -108.94613566 126.84543503 -108.95117188 131.51757812 C-108.96188404 140.67839942 -108.97894332 149.83919705 -109 159 C-101.08859453 158.96177504 -93.17774868 158.9021729 -85.26673317 158.81609726 C-81.59235608 158.77677248 -77.91821326 158.74451142 -74.24365234 158.72900391 C-70.69014264 158.71373715 -67.13727762 158.67911838 -63.58405685 158.63169098 C-61.58475342 158.6098736 -59.58526754 158.60753491 -57.58584595 158.60565186 C-49.07018522 158.4702928 -40.99114077 157.78646688 -34.5625 151.6875 C-30.39112262 144.5127309 -29.55596106 139.24867152 -29.56762695 131.01586914 C-29.5574353 129.93220062 -29.54724365 128.8485321 -29.53674316 127.73202515 C-29.5066586 124.16634927 -29.49735387 120.60094227 -29.48828125 117.03515625 C-29.47143126 114.55650442 -29.45328059 112.07786111 -29.43388367 109.59922791 C-29.38641266 103.08750066 -29.3565843 96.575808 -29.33044434 90.06396484 C-29.30221945 83.4143147 -29.25409888 76.76478732 -29.20898438 70.11523438 C-29.1229841 57.07688773 -29.05505645 44.03851216 -29 31 C-28.04810791 30.94739014 -27.09621582 30.89478027 -26.11547852 30.84057617 C-24.86178467 30.76299072 -23.60809082 30.68540527 -22.31640625 30.60546875 C-21.07576416 30.53223389 -19.83512207 30.45899902 -18.55688477 30.38354492 C-12.3329078 29.71240292 -7.27460825 27.78590463 -3.0625 23.0625 C1.56205906 16.19573048 1.79273857 9.95461608 0.5 1.875 C0.335 1.25625 0.17 0.6375 0 0 Z " fill="#0F69AA" transform="translate(404,233)"/>
<path d="M0 0 C5.18552221 3.32074244 9.72258023 7.31572253 14.28222656 11.43603516 C16.54607755 13.45113494 18.9011662 15.34588356 21.26171875 17.24609375 C26.125509 21.20367563 30.88303106 25.27401821 35.63256836 29.36694336 C39.15720794 32.39804664 42.71461757 35.37844691 46.32421875 38.30859375 C50.55214355 41.74067388 54.69949765 45.25410546 58.82421875 48.80859375 C63.84013564 53.13032238 68.91597174 57.36338571 74.0546875 61.5390625 C79.93221286 66.35548314 85.70033789 71.30353675 91.49023438 76.22460938 C97.08926477 80.98148244 102.69519416 85.72478458 108.38671875 90.37109375 C109.26714844 91.09425781 110.14757812 91.81742187 111.0546875 92.5625 C113.02158678 94.15765809 114.99847108 95.72341767 117 97.2734375 C123.76959829 102.58544222 129.74662524 107.471553 131.25 116.3125 C131.56707645 122.24635932 130.34180155 127.00157444 126.82421875 131.80859375 C122.04687448 137.01393255 117.3756203 139.61847589 110.17578125 140.00390625 C108.94601562 139.98070312 107.71625 139.9575 106.44921875 139.93359375 C105.20398438 139.91554688 103.95875 139.8975 102.67578125 139.87890625 C101.73476563 139.85570312 100.79375 139.8325 99.82421875 139.80859375 C99.82882771 140.37144011 99.83343668 140.93428646 99.83818531 141.51418877 C99.94888063 155.2454618 100.03115996 168.97665605 100.08327961 182.70828056 C100.10933493 189.34903127 100.14465905 195.98931758 100.20141602 202.62988281 C100.25587952 209.04249353 100.28566999 215.45479434 100.29860497 221.86761856 C100.30781896 224.30997722 100.32581177 226.75231958 100.35286903 229.19454575 C100.38934824 232.6246943 100.39415598 236.05357433 100.3918457 239.48388672 C100.40982208 240.48586594 100.42779846 241.48784515 100.44631958 242.52018738 C100.38773365 250.59822106 98.14412639 257.30923164 92.51171875 263.24609375 C84.15127253 268.1068183 77.00006191 268.21366365 67.48046875 268.1015625 C66.10185206 268.0959574 64.72322933 268.09169163 63.34460449 268.08869934 C59.74091686 268.07732232 56.13760013 268.04791832 52.53405762 268.0145874 C48.84697484 267.98373102 45.15983131 267.97016097 41.47265625 267.95507812 C34.25634253 267.92304037 27.04033289 267.87193247 19.82421875 267.80859375 C19.81835251 266.85138931 19.81248627 265.89418488 19.80644226 264.90797424 C19.74907693 255.86018703 19.67624379 246.81263699 19.58850384 237.7650919 C19.54389304 233.11432715 19.50461672 228.46364813 19.4777832 223.81274414 C19.45165718 219.31921198 19.4111898 214.82601137 19.36103249 210.33268547 C19.34442641 208.62364788 19.33287333 206.91455302 19.32660484 205.20544624 C19.2715686 191.5716848 17.96494346 180.40795083 8.16015625 170.05078125 C-1.12311836 161.61529427 -11.70773672 159.2028847 -23.97265625 159.5 C-33.30448753 159.99977141 -40.48580271 164.49028068 -47.17578125 170.80859375 C-54.4475596 179.01712957 -57.29292093 186.63691621 -57.38110352 197.53637695 C-57.39100311 198.29788559 -57.40090271 199.05939423 -57.41110229 199.84397888 C-57.44256945 202.34907981 -57.46741595 204.85419967 -57.4921875 207.359375 C-57.51276981 209.10101298 -57.53376662 210.8426461 -57.55516052 212.58427429 C-57.61024932 217.15939393 -57.65971657 221.73455766 -57.70800781 226.30975342 C-57.75831938 230.98193264 -57.81395496 235.65404814 -57.86914062 240.32617188 C-57.97656076 249.48692468 -58.07804134 258.64773291 -58.17578125 267.80859375 C-66.12137776 267.87833543 -74.06684476 267.93152687 -82.01267242 267.96403027 C-85.7028948 267.97963621 -89.3929066 268.00078057 -93.08300781 268.03491211 C-96.64918567 268.06768817 -100.21516193 268.08548484 -103.78147888 268.09322548 C-105.79322972 268.10140474 -107.80490032 268.12479468 -109.81652832 268.14848328 C-118.11972122 268.14999974 -124.67811894 267.64412978 -131.48828125 262.49609375 C-135.70288677 258.28148823 -137.9675527 253.54865456 -138.29882908 247.59849167 C-138.29790729 246.79100101 -138.29698549 245.98351036 -138.29603577 245.15155029 C-138.29741043 244.22049469 -138.2987851 243.28943909 -138.30020142 242.33016968 C-138.29660614 241.31596954 -138.29301086 240.30176941 -138.28930664 239.25683594 C-138.28945267 238.18335907 -138.28959869 237.1098822 -138.28974915 236.00387573 C-138.28905228 232.45438621 -138.28127039 228.90494911 -138.2734375 225.35546875 C-138.27157252 222.89495879 -138.27014899 220.43444845 -138.26914978 217.97393799 C-138.26533092 211.49665299 -138.25550597 205.0193904 -138.2444458 198.54211426 C-138.23421815 191.93302717 -138.22964925 185.32393647 -138.22460938 178.71484375 C-138.21388317 165.74608419 -138.1970064 152.77734016 -138.17578125 139.80859375 C-139.20566162 139.82672119 -140.23554199 139.84484863 -141.29663086 139.86352539 C-142.66129113 139.87818655 -144.02595621 139.89240473 -145.390625 139.90625 C-146.40642639 139.92588806 -146.40642639 139.92588806 -147.44274902 139.94592285 C-154.06598091 139.9962973 -158.14907565 138.67886288 -162.9140625 134.16015625 C-167.9866923 128.61537236 -169.69507431 123.87319931 -169.47265625 116.35546875 C-168.41034651 107.24196943 -161.90566654 102.35029308 -155.17578125 96.80859375 C-154.304375 96.08800781 -153.43296875 95.36742187 -152.53515625 94.625 C-150.72613595 93.14128598 -148.91217117 91.66358361 -147.09375 90.19140625 C-143.92160836 87.60103623 -140.79531374 84.96180437 -137.67578125 82.30859375 C-133.72939242 78.9539897 -129.75935632 75.63637203 -125.73828125 72.37109375 C-120.874491 68.41351187 -116.11696894 64.34316929 -111.36743164 60.25024414 C-106.97777775 56.47524984 -102.51463354 52.80130914 -98.01953125 49.15234375 C-94.69891531 46.41557237 -91.43534416 43.6175299 -88.17578125 40.80859375 C-83.16263352 36.48925103 -78.0904061 32.25762098 -72.953125 28.0859375 C-69.83180239 25.52654076 -66.75180116 22.92206105 -63.67578125 20.30859375 C-62.03343958 18.9179538 -60.39045063 17.52808422 -58.74707031 16.13867188 C-57.26025422 14.88009915 -55.77651695 13.61789188 -54.29296875 12.35546875 C-38.80510187 -0.61727445 -19.89890828 -9.79681259 0 0 Z " fill="#FDFEFE" transform="translate(275.17578125,124.19140625)"/>
<path d="M0 0 C0.66386719 0.15339844 1.32773438 0.30679687 2.01171875 0.46484375 C5.6019907 1.10780748 9.17787952 1.3501 12.8125 1.5625 C16.3703125 1.7790625 16.3703125 1.7790625 20 2 C20 7.94 20 13.88 20 20 C15.07809171 15.99379558 10.55349248 11.66383798 6.0625 7.1875 C5.47057861 6.60009033 4.87865723 6.01268066 4.26879883 5.4074707 C0 1.12370457 0 1.12370457 0 0 Z " fill="#235D97" transform="translate(117,262)"/>
</svg>
